<?xml version="1.0" encoding="utf-8"?>
<!-- Generator: Adobe Illustrator 23.0.4, SVG Export Plug-In . SVG Version: 6.00 Build 0)  -->
<svg version="1.1" id="Layer_1" xmlns="http://www.w3.org/2000/svg" xmlns:xlink="http://www.w3.org/1999/xlink" x="0px" y="0px"
	 viewBox="0 0 102 102" style="enable-background:new 0 0 102 102;" xml:space="preserve">
<path d="M94.1,12.3H7.9c-0.5,0-0.9,0.4-0.9,0.9v7c0,0.5,0.4,0.9,0.9,0.9h86.3c0.5,0,0.9-0.4,0.9-0.9v-7C95,12.7,94.6,12.3,94.1,12.3
	z M94.1,80.9H7.9c-0.5,0-0.9,0.4-0.9,0.9v7c0,0.5,0.4,0.9,0.9,0.9h86.3c0.5,0,0.9-0.4,0.9-0.9v-7C95,81.3,94.6,80.9,94.1,80.9z
	 M94.1,46.6H7.9C7.4,46.6,7,47,7,47.5v7c0,0.5,0.4,0.9,0.9,0.9h86.3c0.5,0,0.9-0.4,0.9-0.9v-7C95,47,94.6,46.6,94.1,46.6z"/>
</svg>
