<?xml version="1.0" encoding="utf-8"?>
<!-- Generator: Adobe Illustrator 23.0.4, SVG Export Plug-In . SVG Version: 6.00 Build 0)  -->
<svg version="1.1" id="Layer_1" xmlns="http://www.w3.org/2000/svg" xmlns:xlink="http://www.w3.org/1999/xlink" x="0px" y="0px"
	 viewBox="0 0 248.62 311.4" style="enable-background:new 0 0 248.62 311.4;" xml:space="preserve">
<style type="text/css">
	.st0{fill:none;stroke:#ED1C24;stroke-width:2;stroke-miterlimit:10;}
	.st1{fill:none;stroke:#FFFFFF;stroke-width:2.4593;stroke-miterlimit:10;}
</style>
<g>
	<g>
		<path class="st0" d="M53.15,20.98c0,10.98,9.69,11.48,12.07,11.48h20.28v8.51H65.22c-2.37,0-12.07,0.49-12.07,11.48v17.81h-8.51
			V52.44c0-9.6,4.35-13.85,9.79-15.63c-5.34-1.78-9.79-5.84-9.79-15.83C44.64,5.35,56.21,1,65.22,1h24.53v8.51H65.22
			C62.84,9.51,53.15,10,53.15,20.98z"/>
		<path class="st0" d="M141.07,1h8.51v45.11c0,14.84-9.3,25.13-26.12,25.13c-16.92,0-26.21-10.29-26.21-25.13V1h8.51v45.11
			c0,9.2,5.44,16.62,17.71,16.62c12.17,0,17.61-7.42,17.61-16.62V1z"/>
		<path class="st0" d="M213.58,9.51h-24.53v60.74h-8.51V9.51h-24.53V1h57.57V9.51z"/>
		<path class="st0" d="M88.46,64.93h8.51v45.11c0,14.84-9.3,25.13-26.12,25.13c-16.92,0-26.21-10.29-26.21-25.13V64.93h8.51v45.11
			c0,9.2,5.44,16.62,17.71,16.62c12.17,0,17.61-7.42,17.61-16.62V64.93z"/>
		<path class="st0" d="M155.14,119.34v14.84h-8.51v-14.84c0-6.03-5.44-6.53-7.82-6.53h-23.05v21.37h-8.51V64.93h31.66
			c9,0,16.32,4.35,16.32,15.04c0,11.67-8.31,15.04-16.32,15.33h-23.15v9h23.05C147.82,104.3,155.14,108.65,155.14,119.34z
			 M115.77,73.44V86.5h23.15c2.37,0,7.81-0.5,7.81-6.53s-5.44-6.53-7.81-6.53H115.77z"/>
		<path class="st0" d="M210.34,125.67v8.51h-30.86c-9,0-16.32-4.35-16.32-15.04c0-11.67,8.31-15.04,16.32-15.33h15.13V95.3h-15.13
			c-8.01-0.3-16.32-3.66-16.32-15.33c0-10.68,7.32-15.04,16.32-15.04h28.88v8.51h-28.88c-2.47,0-7.91,0.49-7.82,6.53
			c0,6.03,5.44,6.53,7.82,6.53h23.64v26.12h-23.64c-2.38,0-7.82,0.5-7.82,6.53s5.44,6.53,7.82,6.53H210.34z"/>
		<path class="st0" d="M92.32,179.9c0,10.09-7.62,19.19-24.53,19.19c-12.07,0-24.14-7.52-24.14-25.13h8.51
			c0,10.68,5.74,17.31,16.72,17.31c8.01,0,14.94-2.87,14.94-10.39c0-7.42-7.82-10.78-15.83-12.86
			c-15.14-3.96-24.34-8.61-24.34-20.97c0-10.09,6.63-19.19,24.53-19.19c12.07,0,24.14,7.52,24.14,25.13h-8.51
			c0-10.68-5.74-17.11-16.72-17.11c-8.01,0-14.94,2.67-14.94,10.19c0,7.42,7.91,10.98,15.83,12.76
			C83.22,162.89,92.32,167.34,92.32,179.9z"/>
		<path class="st0" d="M130.01,199.1c-17.21,0-32.25-11.57-32.25-35.61s16.03-35.61,32.25-35.61c14.15,0,28.19,11.57,28.19,27.3
			h-8.71c0-5.04-4.95-9.3-11.38-9.3c-6.33,0-14.84,4.25-14.84,17.61s8.31,17.61,14.64,17.61c6.43,0,11.57-4.25,11.57-9.3h8.71
			C158.2,187.62,144.16,199.1,130.01,199.1z M146.33,184.06c-2.97,1.68-6.63,2.77-10.39,2.77c-9.7,0-21.37-6.92-21.37-23.35
			s11.87-23.35,21.56-23.35c3.66,0,7.12,0.99,10.09,2.67c-3.96-4.45-10.09-6.53-16.22-6.53c-11.38,0-23.54,7.72-23.54,27.2
			c0,19.49,11.18,27.2,23.54,27.2C136.24,190.69,142.38,188.61,146.33,184.06z"/>
		<path class="st0" d="M219.44,128.86v69.25h-8.51v-12.46c0-9.2-8.01-16.62-17.91-16.62c-11.57,0-18.4,7.42-18.4,16.62v12.46h-8.51
			v-69.25h8.51v20.28c3.96-4.85,10.09-7.81,18.4-7.81c7.72,0,13.85,3.17,17.91,8.21v-20.67H219.44z M210.93,170.01v-3.56
			c0-9.2-8.01-16.62-17.91-16.62c-11.57,0-18.4,7.42-18.4,16.62v3.96c3.26-5.94,9.2-9.89,18.4-9.89
			C201.14,160.52,207.17,164.27,210.93,170.01z"/>
		<path class="st0" d="M102.41,227.41c0,24.04-13.16,35.61-29.38,35.61c-16.22,0-29.38-11.57-29.38-35.61s13.16-35.61,29.38-35.61
			C89.25,191.8,102.41,203.38,102.41,227.41z M73.03,216.83c-12.46,0-20.68,2.47-20.68,10.58S60.57,238,73.03,238
			c12.46,0,20.67-2.47,20.67-10.58S85.49,216.83,73.03,216.83z M54.14,214.55c4.25-3.76,10.78-5.54,18.89-5.54
			c8.11,0,14.64,1.78,18.89,5.54c-3.17-10.09-10.49-14.34-18.89-14.34S57.3,204.46,54.14,214.55z M91.92,240.27
			c-4.25,3.76-10.78,5.54-18.89,5.54c-8.11,0-14.64-1.78-18.89-5.54c3.17,10.09,10.49,14.34,18.89,14.34S88.76,250.36,91.92,240.27z
			"/>
		<path class="st0" d="M167.01,227.41c0,24.04-13.16,35.61-29.38,35.61s-29.38-11.57-29.38-35.61s13.16-35.61,29.38-35.61
			S167.01,203.38,167.01,227.41z M137.63,216.83c-12.46,0-20.67,2.47-20.67,10.58S125.16,238,137.63,238s20.67-2.47,20.67-10.58
			S150.09,216.83,137.63,216.83z M118.73,214.55c4.25-3.76,10.78-5.54,18.89-5.54s14.64,1.78,18.89,5.54
			c-3.17-10.09-10.49-14.34-18.89-14.34C129.22,200.21,121.9,204.46,118.73,214.55z M156.52,240.27
			c-4.25,3.76-10.78,5.54-18.89,5.54s-14.64-1.78-18.89-5.54c3.17,10.09,10.48,14.34,18.89,14.34
			C146.04,254.62,153.36,250.36,156.52,240.27z"/>
		<path class="st0" d="M220.14,236.71v8.51h-17.41c-9.3,0-16.72,7.42-16.72,16.62v0.2h-8.51v-69.25h8.51v50.25
			c4.45-3.96,10.29-6.33,16.72-6.33H220.14z"/>
	</g>
	<g>
		<path class="st1" d="M247.39,135.57c-0.49-21.05-6.39-42.26-18.23-61.49C193.55,16.18,117.74-1.88,59.84,33.74
			C1.94,69.35-16.12,145.17,19.5,203.06c11.83,19.23,28.1,34.06,46.67,44"/>
		<line class="st1" x1="51.62" y1="310.58" x2="227.37" y2="115.08"/>
	</g>
</g>
</svg>
