<?xml version="1.0" encoding="utf-8"?>
<!-- Generator: Adobe Illustrator 22.1.0, SVG Export Plug-In . SVG Version: 6.00 Build 0)  -->
<svg version="1.1" id="Layer_2" xmlns="http://www.w3.org/2000/svg" xmlns:xlink="http://www.w3.org/1999/xlink" x="0px" y="0px"
	 viewBox="0 0 146.7 23.7" style="enable-background:new 0 0 146.7 23.7;" xml:space="preserve">
<path d="M14.1,16l13.3,7.7v0c-1-3.6-3.1-6.9-6-10h96.8c0.1,0.1,0.2,0.1,0.3,0.2c0.2,0.1,0.3,0.2,0.5,0.3c2.5,1.7,4.3,4.2,5.2,7.1h5
	h17.5c-1.7-4.2-6.3-7.5-12.1-8.8v-1.1c5.9-1.3,10.4-4.6,12.1-8.8h-17.5h-5c-0.8,2.9-2.7,5.4-5.2,7.1c-0.1,0.1-0.3,0.2-0.5,0.3
	c-0.1,0.1-0.2,0.1-0.3,0.2H21.3c3-3.1,5.1-6.5,6.2-10.2v0L14.1,7.7L0,11.8L14.1,16z"/>
</svg>
