<?xml version="1.0" encoding="utf-8"?>
<!-- Generator: Adobe Illustrator 22.1.0, SVG Export Plug-In . SVG Version: 6.00 Build 0)  -->
<svg version="1.1" id="Layer_1" xmlns="http://www.w3.org/2000/svg" xmlns:xlink="http://www.w3.org/1999/xlink" x="0px" y="0px"
	 viewBox="0 0 809 520.6" style="enable-background:new 0 0 809 520.6;" xml:space="preserve">
<g>
	<path d="M809,0H0v307.2h70.3c-0.2,36.6-30,66.3-66.7,66.3H0v146.8h70.3l35.6,0.3c1.8,0,3.2-1.4,3.2-3.2v-0.8c0-1.2-0.7-2.3-1.8-2.9
		c-21.9-11-36.9-33.5-37-59.6c-0.2-36.9,30.7-67.1,67.6-67.1h0.3c39.2,0,70.7,31.1,72.8,70.2c1.8,35.2,30.9,63.2,66.6,63.2h0.1
		c40.1,0,73.8-32.8,73.8-73c0-40.8-33.1-73.9-73.9-73.9h0c-36.7,0-66.5-29.6-66.7-66.3h113.7c-0.4-36.6,28.7-66.7,65.3-67.5h1.3
		c22.3,0,42.4,12.4,53.3,31.8c12.6,22.5,36.6,36.2,62.3,35.7l0,0h154.7c-0.5,36.7-30.4,66.3-67.2,66.3H425.8
		c-40.5,0-74,32.4-74.3,72.8c-0.3,40.8,32.7,74,73.4,74h20.9c25.9,0,49.7-14.4,61.8-37.3l33.5-63.6c10.5-20,31.2-32.5,53.8-32.5h0
		c36.7,0,66.5,29.7,66.7,66.4c-0.1,27-16.1,50.2-39.1,60.8c-1.2,0.5-1.9,1.7-1.9,2.9l0,0c0,1.8,1.4,3.2,3.2,3.2h37.8h79.6
		c37.1,0,67.2-30.1,67.2-67.2v-12.4c0-37.1-30.1-67.2-67.2-67.2h0c-36.8,0-66.7-29.6-67.2-66.3H809V0z"/>
</g>
</svg>
