<?xml version="1.0" encoding="utf-8"?>
<!-- Generator: Adobe Illustrator 22.1.0, SVG Export Plug-In . SVG Version: 6.00 Build 0)  -->
<svg version="1.1" xmlns="http://www.w3.org/2000/svg" xmlns:xlink="http://www.w3.org/1999/xlink" x="0px" y="0px"
	 viewBox="0 0 686 850" style="enable-background:new 0 0 686 850;" xml:space="preserve">
<style type="text/css">
	.st0{fill:#FFFFFF;stroke:#FFFFFF;stroke-miterlimit:10;}
	.st1{fill:#FFFFFF;}
	.st2{fill:none;}
	.st3{display:none;}
	.st4{display:inline;}
	.st5{display:inline;fill:#FFFFFF;}
	.st6{display:inline;fill:#606060;}
	.st7{fill:none;stroke:#ED1C24;stroke-miterlimit:10;}
</style>
<g id="Layer_1">
</g>
<g id="Layer_2">
	<g>
		<path d="M428.2,16v834h-295h-66H-57.9c-0.6,0.4-1.2,1.1-1.7,2.2c-0.4,0.9-4.3,0.2-6.5,0.8c-1.9,0.5-5.2,1.7-5.3,2.8
			c-0.2,3.5,2.9,3.2,5.4,3.3c1.5,0,3.1-0.3,4.5,0.1c1.1,0.4,2,1.7,3,2.6c-0.3,0.4-0.6,0.8-0.9,1.2c-6.8,0-13.5,0-20.3,0
			c-0.1-3.5-0.1-3.5,5.5-4.2c-0.2-2.8-0.4-5.6-0.6-8.8h-17.3c-0.8,0.4-1.6,1.2-2.1,1.9c-3.9,4.7-9.7,4.7-13.8,0.2
			c-0.8-0.9-2.2-1.7-3.4-2.1h-18.5v-0.4c-1.5,0-2.9,0-4.4,0c-5,0.1-8.3,2.5-8.5,6.5c0.9,0.2,1.8,0.4,2.7,0.6
			c0.7,0.2,1.3,0.6,1.9,1.9c-3.9,0-7.8,0-12.1,0c0-2.5,0-5.4,0-8.7c-40.3,0-80.6,0-121.1,0c0,90.3,0,180.6,0,271.4
			c47.4,0,94.7,0,141.3,0c0.8,12.2,0.4,24,2.5,35.4c2.4,13,5.8,26.1,11.1,38.2c4.2,9.7,3.2,19,3.6,29.2c-30.4,0-60.3,0-90.8,0
			c0,16.7,0,32.8,0,48.9c275,0,550,0,825,0c0.1-5.6,0.5-11.3,0.3-16.9c-0.2-3.8,0.8-6.2,4.4-7.8c3.8-1.7,7.4-3.9,10.6-6.5
			c3.9-3.2,7.4-2.6,11,0.8c-2-0.4-4.1-0.8-6.1-1.1c-0.2,0.5-0.4,0.9-0.6,1.4c1.7,0.8,3.6,2.4,5.2,2.2c1.9-0.2,3.6-2.1,5.3-3.2
			c-1.9-1.9-3.8-3.8-6.3-6.2c2,0.1,4.1,0.3,6.8,0.4c-0.9-1.6-1.5-2.8-2.1-3.9c31.1-30.3,40.6-68.2,38.6-110.3c35.6,0,71,0,107.3,0
			c-1.6,0.9-2.6,1.6-3.7,2c-10.3,3.7-20.7,7.3-31.1,11c-4.1,1.5-8.2,2.9-12.2,4.6c-37.3,15.4-52.9,53.6-37.2,91
			c1.3,3.1,2.7,6.1,4.2,9.4c-0.5,0.3-1.4,0.7-3.1,1.6c1.6,1.3,2.7,2.5,4.1,3.4c2.5,1.6,5.6,2.7,7.7,4.7
			c21.9,20.7,63.5,22.4,87.9,3.1c2.7-2.1,7.1-2.2,8.1-6.9c0.2-1.1,5.2-1.1,8.5-1.7c-0.3,0.4,0.1,0.1,0.1-0.1
			c-1.1-9.3,2.5-17.4,6-25.8c4.2-10.3,7.6-21,11.2-31.5c12.8-36.8,39.8-56.3,77.3-62.5c11.5-1.9,23.2-2.5,34.8-2.7
			c22-0.4,44-0.1,66-0.1c2,0,4,0,6.3,0c0-240.1,0-479.8,0-720.4c-1.9,0-3.8,0-5.7,0c-56.2,0-112.3,0-168.5,0c-3.4,0-6.4-0.1-9.6,2.4
			c-2.8,2.3-7,2.8-10.7,4.1c3.6,3.3,10.2-2.3,13.1,5c-7.8,0-14.5,0-21.4,0c-1.4-4.1-0.8-6.9,4.1-7.9c2.7-0.5,5.2-1.8,7.7-3.5
			c-4.7,0-9.4,0-15,0c6.4-14.6,12.3-28.8,7.7-44.6c-0.9-0.7-2.4-1.7-3.8-2.7c1.3-1.1,2.6-2.3,4.4-3.9c1-10.3-11.1-32.8-19.9-35.7
			c2.5,8.2,1,10.3-7.8,10.3c-2.1,0-4.3,0-6.4,0c-0.3-0.5-0.6-1.1-0.9-1.6c1.1-0.9,2.1-2.3,3.4-2.6c2.1-0.4,4.4,0.1,6.4-0.3
			c1.1-0.2,2.8-1.7,2.8-2.6c0-1.1-1.4-2.7-2.5-3c-2.2-0.5-4.6-0.1-6.9-0.5c-1-0.1-1.8-1.3-2.7-1.9c0.9-0.7,1.7-1.8,2.6-2
			c2-0.3,4.1-0.1,6.5-1.3c-3.5-1.3-6.9-2.7-11-4.2c-1.3,1.4-3.8,5.5-4.3-1.6c0-0.7-2-1.5-3.2-1.8c-33.8-9.4-66.1,5.5-79.9,37.6
			c-5,11.6-8.6,23.8-13,35.6c-2.4,6.4-4.9,12.7-7.9,18.9c-9.9,20.6-27.1,31.3-49.3,33.3c-9.4,0.9-19.4,0.1-28.7-2
			c-19.5-4.5-32.9-16.7-40.1-35.6c-5.8-15.3-8.1-31.3-8.7-47.5c-2.1-55.1-3.1-110.3,1.8-165.3c2.1-23.6,6.7-46.8,14.5-69.2
			c16.2-46.2,49.3-71.7,96.8-79.8c29.8-5.1,59.1-3.3,87.7,6.9c25.4,9,44.8,25.1,58,48.6c11.3,20,18.5,41.6,25.7,63.3
			c4.9,14.9,9.9,29.7,15,44.5c3.2,9.4-0.7,14.6-10.8,13.3c-12.5-1.5-24.6-4.3-33.9-10.5c-5.8,0.9-10.4,1.6-14.9,2.4
			c-0.1,6.9,0.9,8,7.7,8.1c0.8,0,1.8-0.2,2.5,0.1c0.8,0.4,1.4,1.3,2.2,2c-0.7,0.7-1.4,1.4-2.2,2c-0.3,0.2-1,0.1-1.5,0.1
			c-3.8,0-7.6,0-11.3,0c-0.2-4.2-0.4-8-0.6-12.3c-0.9-0.2-2.1-0.3-2.9-0.8c-0.7-0.4-1.3-1.4-1.4-2.2c-0.1-0.5,0.7-1.3,1.3-1.7
			c1.5-1,3.1-1.8,3.4-2c4.2,0.8,7.8,1.5,11.3,2.2c0.2-0.5,0.4-1,0.6-1.5c-2.7-3-6-5.6-8.1-9c-2.8-4.5-7.2-2.3-10.7-3.5
			c0-2.7,0-5.4,0-8c0.3,0,0.7-0.1,1-0.1c0.5,2,1.1,3.9,1.6,5.9c0.5-0.1,1-0.2,1.5-0.3c1.2-2.8-0.5-5.2-2.5-7.4
			c-0.7-0.7-2-1.3-2.1-2.1c-1.7-14.8-3.7-29.6-4.8-44.5c-0.5-6.9,0.6-13.9,1-21.1c-29.1,0-57.8,0-87.1,0c-1.8,23,0.6,45,12.4,65.2
			c11.7,20.2,31.2,31.8,50.9,45.3c-19.5,0-37.6,0-55.9,0c0,28,0,55.4,0,83.1c21.6,0,43,0,64.4,0c0.1-0.2,0.2-0.5,0.3-0.7
			c-3.9-1.5-7.9-2.9-11.7-4.6c-1.3-0.6-2.9-2.2-2.8-3.2c0.1-1.4,1.6-3.2,2.9-3.7c5.8-2.4,11.7-4.5,17.6-6.7c0.4,0.3,0.7,0.6,1.1,0.9
			c-0.9,1.4-1.4,3.6-2.6,4.1c-2.6,1-3,2.6-2.9,5c0.1,2.4,1.2,3.6,2.7,5.5c6.1,7.4,13.8,1.8,19.8,4.1c1.9-3.1,3.4-5.5,4.9-7.9
			c0.6,0.3,1.1,0.6,1.7,0.9c-0.7,2-1.3,4-2.4,7.3c1.8-1,3.1-1.3,3.4-2c1.1-2.7,1.1-7,5.1-5.9c2.5,0.7,4.2,4.1,7.2,7.2
			c71,0,143.7,0,216.9,0c0-5.7-0.2-11.2,0.1-16.6c0.1-1.7,1.4-4.2,2.9-4.8c45.4-19.2,65.4-56,70.8-102.6c2.5-22,0.1-43.6-6.7-64.6
			c-9.4-29.2-27.4-51.4-54.4-66.3c-21.3-11.7-44.3-19.2-67-27.3c-13.3-4.8-26.5-10-39.7-15.1c-1.8-0.7-3.5-1.9-5.2-2.8
			c-155.7,0-311.3,0-467,0c-2.7,0.7-5.4,1.9-8.1,1.9c-26.3,0.1-52.6,0.1-78.9,0c-2.7,0-5.4-1.2-8.1-1.9c-62,0-124,0-186,0
			c-8.6,2.2-17.1,5-25.9,6.3c-9.1,1.4-18.1,1.9-27.1,1.5V16H428.2z"/>
		<path d="M140.1,85.6c3.4,8.7,6.4,17.5,10.2,26c6.2,14,16.4,24.3,30.4,30.3c10.4,4.5,21.1,8.1,31.7,12.1c7.2,2.7,14.5,5,21.5,8.1
			c26.9,11.8,40.3,32.9,39.5,62.3c-0.7,28.2-13.1,48.7-39.8,59.7c-6.9,2.8-14,5.2-21,7.9c-3.6,1.4-7.7,1.6-9.9,6.2
			c-1.2,2.6-5.2,3.9-8.1,7.3c2.9,0.7,5.8,1.5,9,2.3c0.7,2.4,0.4,4-3.1,3.9c-4.8-0.1-9.7-0.2-14.5,0c-3.3,0.1-4.2-1.2-3-4.5
			c2.3-0.1,4.7-0.3,7.5-0.5c-2.6-3.9-5-6.1-9.5-3.1c-3,2.1-6.7,3.2-9.4,5.6c-1.6,1.5-2.9,4.7-2.6,6.8c1.1,5.9-0.1,8.2-6.1,8.4
			c-1.7,0.1-3.4-0.3-5,0.1c-1.5,0.4-2.8,1.4-4.3,2.3c4.5,1,8.1,1.8,11.8,2.6c0.7,0.1,1.5-0.2,2.2-0.3c0.8-0.1,1.7-0.2,2.5-0.2
			c-0.1,0.9-0.2,1.7-0.3,2.6c-0.1,1.1-0.5,2.2-0.4,3.2c1,6.9-1,11.2-6.2,13.1c-5.8,2.1-11.7,0.1-15.1-5.3c-0.3-0.4-0.5-0.8-1.4-2.1
			c-4.7,13.8-9.3,27.2-13.9,40.6v7.5c0.3-0.2,0.6-0.3,0.9-0.5c0.4,2.1,0.5,2.9-0.9,4.5v6.9c0.5,0.4,1,0.9,1.5,1.3
			c-0.5,0.3-1,0.6-1.5,1v103.9c0.2,0,0.4-0.1,0.6-0.1c0.5,2.5,1,5.1,1.6,8c5.6-14.9,11.1-29.4,16.7-44.3c-0.8-0.1-2.1-0.4-3.4-0.6
			c-1.8-4.7,0.1-7,4.7-8.1c2.7-0.6,5.3-1.8,9.1-3.2c-3.8-1.3-6.4-2.6-9.2-3.2c-4.5-0.9-6.2-3.2-4.7-7.9c6.6,0,13.4,0,20.1,0
			c0.4,3.9,0.4,3.9-4.1,3.9c-2.6,0-5.2,0-7.7,0.4c4.3,2.4,8.5,5,13,0.1c1.4-1.5,3.6-2.4,5.4-3.5c3.1-1.8,6.9-2.7,6.1-7.8
			c-0.2-1.1,1.9-2.5,2.9-3.8c0.3,0.2,0.7,0.5,1,0.7c-0.7,1.8-1.3,3.6-2.5,6.8c3.6-1.5,5.9-2.4,8.3-3.4c-0.7-1.3-1.2-2.3-1.8-3.3
			c5.7,4,10.6,0.3,15.3-1.6c4.4-1.8,11.1-0.5,12.1-8.6c1.1,1.6,1.8,2.6,2.3,3.2c2.8-0.8,5.3-1.3,7.8-2.2c21-7.2,36.6-20.1,44.4-41.4
			c4-10.9,7.8-22,11.8-32.9c2.1-5.6,4.3-11.2,6.6-16.7c19.1-45.1,76.6-44.4,101.9-23.7c16.6,13.5,22.4,31.9,22,52.5
			c-0.7,28.8-14.1,49.5-41.5,60c-11.8,4.5-23.8,8.5-35.7,12.8c-5.2,1.9-10.2,4-15.2,6.3c-14.2,6.5-24.9,16.8-31,31.2
			c-5.1,12.3-9.3,24.9-14,37.4c-2.5,6.5-5,13.1-7.9,19.4c-5.7,12.5-14.5,22.2-26.8,28.6c-1.2,0.6-2.2,1.4-2.2,1.4
			c-0.8,4.1-0.2,8.5-2.1,10c-5.9,4.9-6.3-3.5-10.3-6.5c0.5,3.2,0.8,4.9,1.1,6.7c-0.3,0.2-0.6,0.5-1,0.7c-1.5-1.3-3-2.5-4.9-4.1
			c-5.8,3.5-14.3,2.7-20.7,10.3c-15.8-0.9-28.8,8.4-42.3,20.8c2.9,0.3,4.2,0.5,5.6,0.6c1.3,0.1,2.6,0,4,0c1.3,3,0.9,4.7-2.6,4.5
			c-0.5,0-1,0-1.5,0c-10.4,0.1-10.7,0.3-15,11.8c3.4,0,6.4,0,10.2,0c-2.4,2.4-4.3,4.1-6.7,6.4c3,1,4.6,1.5,6.1,2
			c-0.1,0.3-0.1,0.7-0.2,1c-4.4,0-8.9,0-14,0c-3.8,11.1-7.9,23-11.8,34.3c2.4,1.4,4.7,2.3,6.4,3.8c0.6,0.5,0.1,2.4,0.1,3.7
			c-1.1-0.3-2.1-0.7-3.2-0.9c-1.1-0.2-2.2-0.6-3.3-0.7v5.5c2.1,2.1,2.5,4.7,1.3,7.7c-0.4,0.9-0.8,1.6-1.3,2.3v6.4
			c0.5,0.4,1,0.8,1.5,1.1c-0.5,0.3-1,0.7-1.5,1.1v49.7c0.2,0,0.4,0,0.6,0c0.5,2.6,0.9,4.9,1.3,7.2c0.6,3.3-0.1,6-1.9,8.2v14.8
			c0.4,1.1,0.7,2.2,1,3.3c0.7,2.5-0.1,5.5-0.1,8.2c0,3.3,0.1,6.6,0.3,9.9c0,0.5,0.5,1.1,0.4,1.4c-3.4,5,0.3,9.7,0.4,14.5
			c0,2.2-0.5,3.9-1.9,4.9v7.2c2.6,1.4,2.4,4.1,0.4,5.2c-0.1,0.1-0.2,0.1-0.4,0.2v7.3c0.3,0,0.6,0,0.9,0c0.9,2.6,0.9,4.1-0.9,4.6V850
			h295V16h-295v51.4C135.5,73.4,137.7,79.5,140.1,85.6z"/>
		<path d="M-109.7,833.2c0.8-3.1,0.8-6,2.2-7.8c1.3-1.7,4-2.9,6.3-3.2c3.9-0.5,6.7,1.5,7.8,5.5c1.3,4.4-0.4,7.6-7.3,11.7
			c9.7,2.2,18,4.1,27.5,6.3c-0.6-2.2-0.9-3.1-1.1-4c-1.9-7.3,0.4-10.3,7.9-10.3c2.3,0,4.6,0,7.1,0c0.3,4,0.5,7.8,0.8,12.1
			c10.3-1.7,19.2-5.5,27.4-11.7c0-2.2-2.6-5.3,2-6.1c0.6-0.1,1.6-2.1,1.3-2.7c-0.5-0.9-1.8-2-2.9-2c-4.6-0.2-9.3-0.1-14.1-0.1
			c-1.3-3.1-1.1-4.9,2.8-4.8c3.2,0.1,6.3,0.1,9.5,0c4.8-0.2,8.6,1,9.3,8.1c3-4.6,5.6-7.8,7.3-11.5c5.2-11.3,9.9-22.9,15.1-34.3
			c4.5-9.8,8.6-19.9,14-29.2c11.5-20,32.9-29.1,54-29.5v-11.5c-10.9-0.4-21.9-3.5-32.8-9c-13.3-6.8-21.2-18.4-26.1-32.2
			c-6.9-19.3-8.3-39.4-8.8-59.6c-0.7-26.8-0.6-53.6-1.4-80.5c-0.5-15.7-2.6-31.2-7.9-46.1c-3-8.6-7.2-16.5-13.5-23.1
			c-6,5.1-10.4,6-14,2.9c-3.4-2.9-3.4-7.4,0.9-14.4c-10.6-2.8-20.7-5.5-31.4-8.3c-0.9,5.5-2.4,9.9-7.7,8.8c-2.8-0.6-5.1-3.4-7.6-5.2
			c0.2-0.7,0.4-1.3,0.6-2c-5.8,1.6-11.7,3.2-17.5,4.8c0,0.4,0,0.8,0.1,1.2c1.9,0.2,3.9,0.4,5.8,0.6c0.5,3.4,0.5,3.4-11.7,5
			c3.1,1.1,6.3,2.1,9.3,3.5c1.2,0.5,2.1,1.7,3.1,2.6c-1.1,1-2,2.5-3.2,3c-2.9,1.3-6,2.3-8.9,4.4c3.1,0,6.1-0.2,9.2,0.1
			c1,0.1,1.9,1.4,2.9,2.2c-0.9,0.6-1.9,1.8-2.8,1.8c-6,0.2-11.9,0.1-17.8,0.1c-1.6-4.8-0.3-7.3,4.3-8.3c2.9-0.6,5.6-1.9,9.7-3.3
			c-4.8-1.6-8.4-2.9-12.1-4c-0.8-0.2-2.1,0.1-2.7,0.6c-5.9,5.8-12.4,11.3-13.2,20.4c-0.1,1.6,0,3.1,0.2,4.7c0.2,2.6,0.3,4.9-1.9,6.3
			v3.1c0.3-0.2,0.5-0.3,0.8-0.5c0.4,0.2,0.8,0.3,1.2,0.5c-0.6,1.6-1,3.4-2,4.7v5.8c0.6,0.4,1.1,0.9,1.7,1.3c-0.6,0.4-1.1,1-1.7,1.4
			v5c3,3.8,1,8.3,2,13.3c-0.7-0.2-1.4-0.4-2-0.6v4.2c1.8,2,2.1,4.5,1.8,7.4c-0.2,2.1-0.1,4.6,0.8,6.4c4.3,8.5,10.6,15.2,19.7,20.8
			c-0.9-2.5-1.5-4-2.6-7.1c2.2,1,4.2,1.3,4.3,2.1c0.9,4,3.9,3.8,7,4.2c1.8,0.2,3.5,1.3,5.3,2c-1.7,0.8-3.4,1.5-5.1,2.3
			c-0.3,0.1-0.6,0.2-2.5,0.9c10.3,3.9,19.4,7.4,28.9,11c-1.1-2.8-1.9-4.8-2.7-6.8c0.4-0.3,0.7-0.5,1.1-0.8c1.6,1.4,3.2,2.9,5.1,4.5
			c3.1-1.9,6.1-3.8,9.2-5.7c2.4,6.1-4.1,6-6,9.2c8.8,4.1,17.4,8,26.2,12.1c-1.9-8.5-0.5-10.3,8.2-10.1c2.3,0.1,6.5,1.4,6.5,1.8
			c-0.5,4.4-4.1,1.4-6.2,2.2c-0.9,0.3-2.1-0.2-2.9,0.2c-1.2,0.6-2.1,1.7-3.2,2.6c1,1.1,1.8,2.8,3,3.2c2,0.6,4.3,0,6.4,0.4
			c1.1,0.2,2.1,1.3,3.2,2c-1,0.7-2,1.7-3.1,2.1c-1,0.4-2.2,0.2-4.1,0.4c16.4,12.9,23.4,29.8,24.3,49.3c0.9,19.6-4.4,37.2-18.6,51.5
			c2.5,7.7,1.9,11.5-2,13.7c-4,2.2-8,0.9-11.9-3.3c-9.6,2.2-18.8,4.4-28.6,6.7c-0.6,3.3-2.4,6.7-7.5,6.3c-5-0.3-6.1-3.8-6.3-8
			c-19.5-2.9-35.1-11.6-45.1-29.1c-0.9,1.5-1.8,2.8-2.7,3.8v91c0.8,0.8,1.4,1.8,1.6,2.6c0.8,2.9,0.7,5.9-1.6,7.9v8.8
			c0.6,0.4,1.2,0.9,1.7,1.2c-0.6,0.4-1.1,0.8-1.7,1.2v4.7c0.5,0.2,1,0.4,1.5,0.6C-129.8,814.7-119.6,823.6-109.7,833.2z"/>
		<path d="M-113.1,105.9c0,15.5,0,30.6,0,46.1c20.4,0,40.3,0,60.9,0c0-15.2,0-30.4,0-46.1c10.6,0,20.6-0.1,30.5,0.2
			c1.2,0,2.9,2.4,3.4,4c7.4,22.9,10.1,46.5,9,70.5c-0.3,5.8-1.2,11.6-1.4,17.4c-0.1,3.7-1.6,4.7-5.2,4.7c-26.5-0.2-53-0.2-79.5-0.2
			c-1.9,0-3.8,0-5.8,1.1c2.3,0.1,4.7,0.3,7,0.4c0.9,4.5,0.9,4.5-14.5,3.7c0.2-1.5,0.3-2.9,0.5-4.7c-2.2,0-4.7,0-7.5,0
			c0,29.3,0,58.4,0,87.5c5.6,3.8,7.2-2.7,11.5-5c-0.2,2.6-0.3,4.2-0.4,5.8c0.3,0.1,0.6,0.3,0.8,0.4c0.7-1.1,1.3-2.2,1.9-3.2
			c1.9-3.4,6-3.9,7.4-0.5c1.6,3.7,4.1,3.6,7.1,3.6c3.8-0.1,7.6,0,12.4,0c-1.7,1.4-2.6,2.2-3.6,3c2.2,2.3,4.3,4.4,6.6,6.9
			c4.2-2.9,8.2-5.8,12.2-8.6c0.5,0.3,0.9,0.6,1.4,0.9c-1.1,2-1.8,4.3-3.3,5.9c-1.8,1.8-4.3,3-6.5,4.5c0,0.5,0,1.1-0.1,1.6
			c2.7,0.7,5.5,1.5,8.8,2.3c1,2.3,0.7,4.1-3.1,4c-4.8-0.1-9.7,0.2-14.5-0.2c-1.3-0.1-2.6-1.8-3.9-2.7c0.3-0.5,0.6-1.1,0.8-1.6
			c2.4-0.1,4.8-0.3,7.7-0.4c-3.3-3.9-6.3-7.3-9.9-11.5c-3.5,1.6-8.1,3.7-12.7,5.9c2.4,4.7,1.9,5.9-2.9,5.4
			c-6.2-0.6-10.9,1.8-15.4,5.5c-7.4,6.1-12.9,13.3-16.7,22.6v1.8c0.2,0,0.5-0.1,0.7-0.1c0.4,3.9,1.5,8,0.9,11.8
			c-0.1,0.8-0.7,1.5-1.6,2.3v8.7c0.6,0.5,1.2,1,1.7,1.5c-0.6,0.6-1.2,1.2-1.7,1.8v10.2c2.6,2.9,2.7,7.1,0,10.9v4.5
			c0.5,0.2,1,0.4,1.6,0.7c-1.9,9.9,5.3,15.7,11.3,21.9c1.8,1.9,5.5,1.9,7.5,2.6c0.7-3.8,0.5-8.6,1.8-9.1c4-1.4,8.7-1.2,13.1-1.5
			c0.3,0,1.1,1.4,0.9,1.9c-0.2,0.8-1,1.8-1.7,1.9c-2.1,0.3-4.4-0.2-6.5,0.3c-1.6,0.4-2.8,1.9-4.3,2.9c1.4,1,2.8,2.6,4.4,3
			c1.8,0.5,4,0,5.9,0.3c0.8,0.1,1.4,1.3,2.1,2c-0.7,0.7-1.4,1.8-2.2,1.9c-2,0.3-4,0.1-6,0.1c-1.9,0-3.8,0-5.8,0.6
			c3.2,0.3,4.7,6.4,9.2,2.3c0.4-0.3,3,0.9,3.6,1.9c2.6,4.6,7.5,3.7,11.5,4.7c0.8,0.2,2-1.6,3-2.4c7.7,4.1,7.7,4.1,10.7-0.8
			c0.1,5.4,3.5,4.2,6.3,3.9c3.1-0.3,6.3-0.8,9.4-1.5c3.9-0.9,8.7-1.1,7.4-7.5c-0.2-0.8,1-2.7,1.6-2.8c4-0.3,8-0.1,12.1,0.6
			c9.9-5.3,16.7-14.1,21.1-24.5c4.8-11.3,8.7-23,13-34.5c2.6-6.8,5.1-13.7,8-20.5c6.6-15.6,17.8-26.9,33.5-33.3c8-3.3,16.4-6,24.5-9
			V152c-6.7-2.3-13.5-4.5-20-7.2C9.4,129.2-5.9,88.9,11.7,51.7c9.7-20.5,27.1-30.3,48.8-32.4c2.2-0.2,4.5-0.3,6.8-0.3v-3h66V0.9
			c-3.8-0.1-7.5-0.4-11.3-0.9h-249.8c-0.6,0.1-1.3,0.2-1.9,0.2v105.6C-124.2,105.9-118.7,105.9-113.1,105.9z"/>
		<path d="M131.4,402.6c-1.1,0.3-2.3,0.1-3.5,0.1c-7.7,0-10,2.4-10.7,10.2c-0.2,1.6-1.8,3.1-2.8,4.7c-0.5-0.2-0.9-0.5-1.4-0.7
			c0.6-1.5,1.2-3,1.8-4.4c-0.3-0.1-0.7-0.4-0.9-0.3c-13.8,11.1-30.4,16.3-46.8,21.8v134.1c2.7,0,5.4-0.1,8.2-0.4
			c15.2-1.6,29-6.2,40.1-17.1c1.6-1.6,2.2-4.2,3.3-6.2c0.7-1.4,1.3-3,2.4-4.1c1.1-1,2.8-1.3,5.1-2.4c-5.4-2.8-8.6-6.1-6.7-11.5
			c1.2-3.6,4.2-4.9,8.2-4.6c0.1,3.1,0.3,6,0.4,8.9c0.2,0,0.5,0.1,0.7,0.1c1-3.4,2.1-6.7,3.3-10.8c-2.4-2-5.8-4.7-9.6-7.9
			c-0.3,2.7-0.5,4.7-0.7,6.8c-3-1.4-3.2-2.2-2.3-12.7c5.3-0.2,7.2,5.2,11.7,7c0.3-2.6,0.6-5,0.9-7.5c0.3,0,0.6-0.1,1-0.1V401.8
			C132.6,402.1,132.1,402.4,131.4,402.6z"/>
		<path d="M110.1,274.6c4.6-2.5,9.8-5.9,9.1-13c-0.1-1.1,2.2-2.5,3.5-3.5c1.1-0.9,2.4-1.6,3.3-3.4c-2.2-0.3-4.4-0.5-6.3-0.7
			c-0.3-2.8-0.7-5.3-0.9-7.8c-0.3-3.8,1.4-6,5.4-6.2c2.6-0.1,5.2-0.3,8-1.3c-5.1-1.6-6.5-5-6.9-9.4c-0.1-0.8-1.6-1.5-2.4-2.2
			c-0.3,1.3-1.1,2.7-0.8,3.9c0.3,1.6,1.5,3.1,1.7,4.9c-5.4-1.1-5-5-4.7-8.8c0.3-3.6,2.6-4.7,5.9-4.6c2.5,0.1,5.1,0,8.2,0v-4.9
			c-1.6-19.5-8.1-36.1-24.9-47.3c-8.2-5.5-17.6-9.3-26.8-13c-4.7-1.9-9.5-3.6-14.3-5.2v142.3c2.9-1.1,5.8-2.2,8.7-3.4
			C87.5,286,99,280.6,110.1,274.6z"/>
		<rect x="520.3" y="16" width="373.6" height="513.6"/>
	</g>
</g>
<g id="Layer_3" class="st3">
</g>
<g id="Layer_4" class="st3">
</g>
<g id="Layer_5">
	<g>
		<g>
			<path class="st1" d="M944.4,850V-2.7H620.6v74.1c-38.6-0.2-69.9-31.6-69.9-70.3v-3.8H395.9v74.1l-0.3,37.6c0,1.9,1.5,3.4,3.4,3.4
				h0.8c1.3,0,2.5-0.8,3-1.9c11.6-23,35.3-38.9,62.9-39.1c38.9-0.2,70.7,32.4,70.7,71.3v0.3c0,41.3-32.7,74.6-74,76.7
				c-37.1,1.9-66.6,32.6-66.6,70.2v0.1c0,42.3,34.6,77.8,76.9,77.8c43,0,77.9-34.9,77.9-77.9v0c0-38.7,31.2-70.1,69.9-70.3v119.9
				c38.6-0.5,70.3,30.2,71.1,68.9v1.4c0,23.5-13.1,44.7-33.5,56.2c-23.7,13.3-38.1,38.5-37.6,65.7l0,0v163
				c-38.7-0.5-69.9-32-69.9-70.8V446.1c0-42.7-34.1-78-76.8-78.3c-43-0.3-78,34.4-78,77.4v22c0,27.3,15.1,52.4,39.3,65.2l67,35.3
				c21,11.1,34.2,32.9,34.2,56.7v0c0,38.7-31.3,70.1-70,70.3c-28.5-0.1-52.9-17-64.1-41.2c-0.6-1.2-1.8-2-3.1-2l0,0
				c-1.9,0-3.4,1.5-3.4,3.4v39.8v83.9c0,39.1,31.7,70.8,70.8,70.8h13.1c39.1,0,70.8-31.7,70.8-70.8v0c0-38.8,31.2-70.3,69.9-70.8
				V850H944.4z"/>
		</g>
	</g>
	<rect x="620.6" y="219.6" width="111.2" height="475.7"/>
	<rect x="620.6" y="-7" width="111.2" height="74.8"/>
</g>
</svg>
