<?xml version="1.0" encoding="utf-8"?>
<!-- Generator: Adobe Illustrator 19.2.0, SVG Export Plug-In . SVG Version: 6.00 Build 0)  -->
<svg version="1.1" id="Layer_1" xmlns="http://www.w3.org/2000/svg" xmlns:xlink="http://www.w3.org/1999/xlink" x="0px" y="0px"
	 viewBox="0 0 33.3 33.3" style="enable-background:new 0 0 33.3 33.3;" xml:space="preserve">
<g>
	<path d="M18.3,12.3c0.9,1.8,2.5,3.2,4.6,3.9l1.2,0.4L22.9,17c-2.1,0.7-3.7,2.2-4.6,3.9l-0.9-0.4c0.1-0.2,0.2-0.4,0.4-0.7
		c0.1-0.1,0.1-0.1,0.1-0.2c0.1-0.1,0.2-0.3,0.3-0.4c0.1-0.1,0.1-0.1,0.2-0.2s0.2-0.2,0.3-0.4c0.1-0.1,0.1-0.1,0.2-0.2
		s0.2-0.2,0.4-0.4c0.1-0.1,0.1-0.1,0.2-0.2s0.3-0.2,0.5-0.4c0.1-0.1,0.1-0.1,0.2-0.1c0.1-0.1,0.3-0.2,0.5-0.3H9.2v-0.9h11.4
		c-0.2-0.1-0.3-0.2-0.5-0.3C20,15.7,20,15.7,20,15.7c-0.2-0.1-0.3-0.2-0.5-0.4c-0.1-0.1-0.1-0.1-0.2-0.2c-0.1-0.1-0.2-0.2-0.4-0.4
		c-0.1-0.1-0.1-0.1-0.2-0.2c-0.1-0.1-0.2-0.2-0.3-0.4c-0.1-0.1-0.1-0.1-0.2-0.2c-0.1-0.1-0.2-0.3-0.3-0.4c-0.1-0.1-0.1-0.1-0.1-0.2
		c-0.1-0.2-0.2-0.4-0.4-0.7L18.3,12.3z"/>
</g>
</svg>
