<?xml version="1.0" encoding="utf-8"?>
<!-- Generator: Adobe Illustrator 19.2.0, SVG Export Plug-In . SVG Version: 6.00 Build 0)  -->
<svg version="1.1" id="Layer_1" xmlns="http://www.w3.org/2000/svg" xmlns:xlink="http://www.w3.org/1999/xlink" x="0px" y="0px"
	 viewBox="0 0 14.9 8.6" style="enable-background:new 0 0 14.9 8.6;" xml:space="preserve">
<g>
	<path d="M9.1,0c0.9,1.8,2.5,3.2,4.6,3.9l1.2,0.4l-1.2,0.4C11.6,5.4,10,6.9,9.1,8.6L8.2,8.2C8.3,8,8.4,7.8,8.6,7.5
		c0.1-0.1,0.1-0.1,0.1-0.2C8.8,7.2,8.9,7,9,6.9c0.1-0.1,0.1-0.1,0.2-0.2s0.2-0.2,0.3-0.4c0.1-0.1,0.1-0.1,0.2-0.2s0.2-0.2,0.4-0.4
		c0.1-0.1,0.1-0.1,0.2-0.2s0.3-0.2,0.5-0.4C10.9,5,10.9,5,11,5c0.1-0.1,0.3-0.2,0.5-0.3H0V3.8h11.4c-0.2-0.1-0.3-0.2-0.5-0.3
		c-0.1-0.1-0.1-0.1-0.1-0.1c-0.2-0.1-0.3-0.2-0.5-0.4c-0.1-0.1-0.1-0.1-0.2-0.2C10,2.7,9.9,2.6,9.7,2.4C9.6,2.3,9.6,2.3,9.5,2.2
		C9.4,2.1,9.3,2,9.2,1.8C9.1,1.7,9.1,1.7,9,1.6C8.9,1.5,8.8,1.3,8.7,1.2C8.6,1.1,8.6,1.1,8.6,1C8.5,0.8,8.4,0.6,8.2,0.3L9.1,0z"/>
</g>
</svg>
